{"title":"Mean Girls 2004 DVDRip x246 Esub 200MB - cRcWoRLd","uid":7362512,"size":225183142,"categoryP":"video","categoryS":"movies","magnet":"?xt=urn:btih:ecf1876f702194b6a7e5817e14aa79b3607121c5&amp;dn=Mean+Girls+2004+DVDRip+x246+Esub+200MB+-+cRcWoRLd&amp;tr=udp%3A%2F%2Ftracker.openbittorrent.com%3A80&amp;tr=udp%3A%2F%2Fopen.demonii.com%3A1337&amp;tr=udp%3A%2F%2Ftracker.coppersurfer.tk%3A6969&amp;tr=udp%3A%2F%2Fexodus.desync.com%3A6969","seeders":1,"leechers":1,"uploader":"CRCWORLD","files":9,"time":1340007233,"description":" &lt;a href=&quot;http://www.imdb.com/title/tt0377092&quot; rel=&quot;nofollow&quot; target=&quot;_NEW&quot;&gt;http://www.imdb.com/title/tt0377092&lt;/a&gt;\n\nCady Heron is a hit with The Plastics, the A-list girl clique at her new school, until she makes the mistake of falling for Aaron Samuels, the ex-boyfriend of alpha Plastic Regina George.\n\nDirector:\nMark Waters\nWriters:\nRosalind Wiseman (book), Tina Fey (screenplay)\nStars:\nLindsay Lohan, Jonathan Bennett and Rachel McAdams \n\nRating- 6.8\n\nINFO-\nGeneral\nComplete name                            :Mean Girls 2004 DVDRip x246 Esub 200MB - cRcWoRLd.mp4\nFormat                                   : MPEG-4\nFormat profile                           : Base Media / Version 2\nCodec ID                                 : mp42\nFile size                                : 212 MiB\nDuration                                 : 1h 36mn\nOverall bit rate mode                    : Variable\nOverall bit rate                         : 307 Kbps\nEncoded date                             : UTC 2012-06-14 22:00:51\n\nVideo\nID                                       : 1\nFormat                                   : AVC\nFormat/Info                              : Advanced Video Codec\nFormat profile                           : &lt;a class=&quot;__cf_email__&quot; href=&quot;/cdn-cgi/l/email-protection&quot; data-cfemail=&quot;7c311d15123c304e524d&quot;&gt;[email&amp;#160;protected]&lt;/a&gt;&lt;script cf-hash='f9e31' type=&quot;text/javascript&quot;&gt;\n/* &lt;![CDATA[ */!function(){try{var t=&quot;currentScript&quot;in document?document.currentScript:function(){for(var t=document.getElementsByTagName(&quot;script&quot;),e=t.length;e--;)if(t[e].getAttribute(&quot;cf-hash&quot;))return t[e]}();if(t&amp;&amp;t.previousSibling){var e,r,n,i,c=t.previousSibling,a=c.getAttribute(&quot;data-cfemail&quot;);if(a){for(e=&quot;&quot;,r=parseInt(a.substr(0,2),16),n=2;a.length-n;n+=2)i=parseInt(a.substr(n,2),16)^r,e+=String.fromCharCode(i);e=document.createTextNode(e),c.parentNode.replaceChild(e,c)}}}catch(u){}}();/* ]]&gt; */&lt;/script&gt;\nFormat settings, CABAC                   : Yes\nFormat settings, ReFrames                : 4 frames\nCodec ID                                 : avc1\nCodec ID/Info                            : Advanced Video Coding\nDuration                                 : 1h 36mn\nBit rate mode                            : Variable\nBit rate                                 : 239 Kbps\nWidth                                    : 576 pixels\nHeight                                   : 304 pixels\nDisplay aspect ratio                     : 1.895\nFrame rate mode                          : Variable\nFrame rate                               : 23.976 fps\nMinimum frame rate                       : 23.974 fps\nMaximum frame rate                       : 23.981 fps\nColor space                              : YUV\nChroma subsampling                       : 4:2:0\nBit depth                                : 8 bits\nScan type                                : Progressive\nBits/(Pixel*Frame)                       : 0.057\nStream size                              : 165 MiB (78%)\nWriting library                          : x264 core 112\n\nAudio\nID                                       : 2\nFormat                                   : AAC\nFormat/Info                              : Advanced Audio Codec\nFormat profile                           : LC\nCodec ID                                 : 40\nDuration                                 : 1h 36mn\nBit rate mode                            : Variable\nBit rate                                 : 63.9 Kbps\nMaximum bit rate                         : 121 Kbps\nChannel(s)                               : 2 channels\nChannel positions                        : Front: L R\nSampling rate                            : 22.05 KHz\nCompression mode                         : Lossy\nDelay relative to video                  : -83ms\nStream size                              : 44.3 MiB (21%)\n\nSCREENS-\n &lt;a href=&quot;\nhttp://www.postimg.com/73000/photo-72500.jpg&quot; rel=&quot;nofollow&quot; target=&quot;_NEW&quot;&gt;\nhttp://www.postimg.com/73000/photo-72500.jpg&lt;/a&gt;\n &lt;a href=&quot;\nhttp://www.postimg.com/73000/photo-72501.jpg&quot; rel=&quot;nofollow&quot; target=&quot;_NEW&quot;&gt;\nhttp://www.postimg.com/73000/photo-72501.jpg&lt;/a&gt;\n &lt;a href=&quot;\nhttp://www.postimg.com/73000/photo-72502.jpg&quot; rel=&quot;nofollow&quot; target=&quot;_NEW&quot;&gt;\nhttp://www.postimg.com/73000/photo-72502.jpg&lt;/a&gt;\n\n\n\nTRY THE SAMPLE 1ST.\n\nBEST For SMARTPHONES/IPAD/IPHONE/ANDROID Devices. For PC Best Use in VLC &amp; MPC.\n\nNEW Rips will Come SOOOOON.\n\n","torrent":{"xt":"urn:btih:ecf1876f702194b6a7e5817e14aa79b3607121c5","amp;dn":"Mean+Girls+2004+DVDRip+x246+Esub+200MB+-+cRcWoRLd","amp;tr":["udp%3A%2F%2Ftracker.openbittorrent.com%3A80","udp%3A%2F%2Fopen.demonii.com%3A1337","udp%3A%2F%2Ftracker.coppersurfer.tk%3A6969","udp%3A%2F%2Fexodus.desync.com%3A6969"],"infoHash":"ecf1876f702194b6a7e5817e14aa79b3607121c5","infoHashBuffer":{"type":"Buffer","data":[236,241,135,111,112,33,148,182,167,229,129,126,20,170,121,179,96,113,33,197]},"announce":[],"urlList":[]}}